<mxfile host="app.diagrams.net" modified="2022-10-03T23:32:13.980Z" agent="5.0 (iPhone; CPU iPhone OS 16_0 like Mac OS X) AppleWebKit/605.1.15 (KHTML, like Gecko) CriOS/105.0.5195.147 Mobile/15E148 Safari/604.1" etag="3VgEs0DN_SHkpSbY4O6R" version="20.4.0" type="github">
  <diagram id="GMz0Uxf1giQjH9oSPosS" name="Page-1">
    <mxGraphModel dx="356" dy="633" grid="0" gridSize="10" guides="1" tooltips="1" connect="1" arrows="1" fold="1" page="0" pageScale="1" pageWidth="850" pageHeight="1100" math="0" shadow="0">
      <root>
        <mxCell id="0" />
        <mxCell id="1" parent="0" />
        <mxCell id="RUb-kOH8L20mp2pxbjQ5-1" value="Get File&amp;nbsp;" style="rounded=0;whiteSpace=wrap;html=1;hachureGap=4;" parent="1" vertex="1">
          <mxGeometry x="191" y="312" width="160" height="80" as="geometry" />
        </mxCell>
        <mxCell id="RUb-kOH8L20mp2pxbjQ5-2" value="" style="edgeStyle=none;orthogonalLoop=1;jettySize=auto;html=1;rounded=0;endArrow=open;startSize=14;endSize=14;sourcePerimeterSpacing=8;targetPerimeterSpacing=8;curved=1;" parent="1" source="RUb-kOH8L20mp2pxbjQ5-1" edge="1">
          <mxGeometry width="120" relative="1" as="geometry">
            <mxPoint x="433" y="309" as="sourcePoint" />
            <mxPoint x="529" y="273" as="targetPoint" />
            <Array as="points">
              <mxPoint x="523" y="278" />
            </Array>
          </mxGeometry>
        </mxCell>
        <mxCell id="RUb-kOH8L20mp2pxbjQ5-4" value="Parse file using lexer" style="rounded=0;whiteSpace=wrap;html=1;hachureGap=4;" parent="1" vertex="1">
          <mxGeometry x="504" y="227" width="160" height="80" as="geometry" />
        </mxCell>
        <mxCell id="RUb-kOH8L20mp2pxbjQ5-5" value="" style="edgeStyle=none;orthogonalLoop=1;jettySize=auto;html=1;rounded=0;endArrow=open;startSize=14;endSize=14;sourcePerimeterSpacing=8;targetPerimeterSpacing=8;curved=1;exitX=0.5;exitY=1;exitDx=0;exitDy=0;" parent="1" source="RUb-kOH8L20mp2pxbjQ5-4" edge="1">
          <mxGeometry width="120" relative="1" as="geometry">
            <mxPoint x="561" y="357" as="sourcePoint" />
            <mxPoint x="584" y="411" as="targetPoint" />
            <Array as="points" />
          </mxGeometry>
        </mxCell>
        <mxCell id="RUb-kOH8L20mp2pxbjQ5-6" value="Check for constants" style="rounded=0;whiteSpace=wrap;html=1;hachureGap=4;direction=south;" parent="1" vertex="1">
          <mxGeometry x="544" y="347" width="80" height="160" as="geometry" />
        </mxCell>
        <mxCell id="RUb-kOH8L20mp2pxbjQ5-8" value="" style="edgeStyle=none;orthogonalLoop=1;jettySize=auto;html=1;rounded=0;endArrow=open;startSize=14;endSize=14;sourcePerimeterSpacing=8;targetPerimeterSpacing=8;curved=1;" parent="1" edge="1">
          <mxGeometry width="120" relative="1" as="geometry">
            <mxPoint x="622" y="420" as="sourcePoint" />
            <mxPoint x="742" y="420" as="targetPoint" />
            <Array as="points" />
          </mxGeometry>
        </mxCell>
        <mxCell id="RUb-kOH8L20mp2pxbjQ5-10" value="Convert code to python" style="rounded=0;whiteSpace=wrap;html=1;hachureGap=4;" parent="1" vertex="1">
          <mxGeometry x="720" y="375" width="160" height="80" as="geometry" />
        </mxCell>
        <mxCell id="RUb-kOH8L20mp2pxbjQ5-11" value="" style="edgeStyle=none;orthogonalLoop=1;jettySize=auto;html=1;rounded=0;endArrow=open;startSize=14;endSize=14;sourcePerimeterSpacing=8;targetPerimeterSpacing=8;curved=1;exitX=0.5;exitY=1;exitDx=0;exitDy=0;" parent="1" source="RUb-kOH8L20mp2pxbjQ5-10" edge="1">
          <mxGeometry width="120" relative="1" as="geometry">
            <mxPoint x="812" y="476" as="sourcePoint" />
            <mxPoint x="800" y="557" as="targetPoint" />
            <Array as="points" />
          </mxGeometry>
        </mxCell>
        <mxCell id="RUb-kOH8L20mp2pxbjQ5-12" value="Get File" style="rounded=0;whiteSpace=wrap;html=1;hachureGap=4;" parent="1" vertex="1">
          <mxGeometry x="720" y="538" width="160" height="80" as="geometry" />
        </mxCell>
        <mxCell id="RUb-kOH8L20mp2pxbjQ5-13" value="" style="edgeStyle=none;orthogonalLoop=1;jettySize=auto;html=1;rounded=0;endArrow=open;startSize=14;endSize=14;sourcePerimeterSpacing=8;targetPerimeterSpacing=8;curved=1;" parent="1" edge="1">
          <mxGeometry width="120" relative="1" as="geometry">
            <mxPoint x="883" y="571" as="sourcePoint" />
            <mxPoint x="1006" y="454" as="targetPoint" />
            <Array as="points">
              <mxPoint x="1006" y="577" />
            </Array>
          </mxGeometry>
        </mxCell>
        <mxCell id="RUb-kOH8L20mp2pxbjQ5-14" value="Execute" style="rounded=0;whiteSpace=wrap;html=1;hachureGap=4;" parent="1" vertex="1">
          <mxGeometry x="925" y="392" width="160" height="80" as="geometry" />
        </mxCell>
        <mxCell id="RUb-kOH8L20mp2pxbjQ5-15" value="" style="edgeStyle=none;orthogonalLoop=1;jettySize=auto;html=1;rounded=0;endArrow=open;startSize=14;endSize=14;sourcePerimeterSpacing=8;targetPerimeterSpacing=8;curved=1;exitX=0.5;exitY=1;exitDx=0;exitDy=0;" parent="1" source="RUb-kOH8L20mp2pxbjQ5-14" edge="1">
          <mxGeometry width="120" relative="1" as="geometry">
            <mxPoint x="1048" y="580" as="sourcePoint" />
            <mxPoint x="999" y="653" as="targetPoint" />
            <Array as="points" />
          </mxGeometry>
        </mxCell>
        <mxCell id="RUb-kOH8L20mp2pxbjQ5-16" value="Print results" style="rounded=0;whiteSpace=wrap;html=1;hachureGap=4;" parent="1" vertex="1">
          <mxGeometry x="921" y="628" width="160" height="80" as="geometry" />
        </mxCell>
        <mxCell id="RUb-kOH8L20mp2pxbjQ5-17" value="" style="edgeStyle=none;orthogonalLoop=1;jettySize=auto;html=1;rounded=0;endArrow=open;startSize=14;endSize=14;sourcePerimeterSpacing=8;targetPerimeterSpacing=8;curved=1;" parent="1" edge="1">
          <mxGeometry width="120" relative="1" as="geometry">
            <mxPoint x="1003" y="589" as="sourcePoint" />
            <mxPoint x="1110" y="589" as="targetPoint" />
            <Array as="points" />
          </mxGeometry>
        </mxCell>
        <mxCell id="RUb-kOH8L20mp2pxbjQ5-18" value="Send output to stdout" style="rounded=0;whiteSpace=wrap;html=1;hachureGap=4;" parent="1" vertex="1">
          <mxGeometry x="1095" y="542" width="160" height="80" as="geometry" />
        </mxCell>
      </root>
    </mxGraphModel>
  </diagram>
</mxfile>
